<?xml version="1.0" standalone="no"?>
<!DOCTYPE svg PUBLIC "-//W3C//DTD SVG 1.1//EN"
	"http://www.w3.org/Graphics/SVG/1.1/DTD/svg11.dtd">
<svg xmlns="http://www.w3.org/2000/svg" version="1.1"
	xmlns:xlink="http://www.w3.org/1999/xlink"
	color="black"
	width="793.80px" height="120.66px">
<style type="text/css">
.fill {fill: currentColor}
.stroke {stroke: currentColor; fill: none}
text{white-space:pre; fill:currentColor}
</style>
<title> page 1</title>
<!-- Creator: abcm2ps-8.14.12 -->
<!-- CreationDate: Jun 6, 2022 15:29 -->
<!-- CommandLine: - -O yincheng.1.svg -v -->
<g stroke-width="0.70">
<path class="stroke" stroke-width="1"
	d="M91.10 81.00v-24.00"/>
<path class="stroke" stroke-width="1"
	d="M142.60 81.00v-24.00"/>
<path class="stroke" stroke-width="1"
	d="M194.00 81.00v-24.00"/>
<path class="stroke" stroke-width="1"
	d="M245.50 81.00v-24.00"/>
<path class="stroke" stroke-width="1"
	d="M297.00 81.00v-24.00"/>
<path class="stroke" stroke-width="1"
	d="M348.50 81.00v-24.00"/>
<path class="stroke" stroke-width="1"
	d="M399.90 81.00v-24.00"/>
<path class="stroke" stroke-width="1"
	d="M451.40 81.00v-24.00"/>
<path class="stroke" stroke-width="1"
	d="M502.90 81.00v-24.00"/>
<path class="stroke" stroke-width="1"
	d="M554.40 81.00v-24.00"/>
<path class="stroke" stroke-width="1"
	d="M605.80 81.00v-24.00"/>
<path class="stroke" stroke-width="1"
	d="M657.30 81.00v-24.00"/>
<path class="stroke" stroke-width="1"
	d="M708.80 81.00v-24.00"/>
<path d="m18.90 81.00
	h756.00
	M18.90 75.00
	h756.00
	M18.90 69.00
	h756.00
	M18.90 63.00
	h756.00
	M18.90 57.00
	h756.00
	" class="stroke"/>
<defs>
<path id="utclef" class="fill" d="m-50 -90
	c-72 -41 -72 -158 52 -188
	150 -10 220 188 90 256
	-114 52 -275 0 -293 -136
	-15 -181 93 -229 220 -334
	88 -87 79 -133 62 -210
	-51 33 -94 105 -89 186
	17 267 36 374 49 574
	6 96 -19 134 -77 135
	-80 1 -126 -93 -61 -133
	85 -41 133 101 31 105
	23 17 92 37 90 -92
	-10 -223 -39 -342 -50 -617
	0 -90 0 -162 96 -232
	56 72 63 230 22 289
	-74 106 -257 168 -255 316
	9 153 148 185 252 133
	86 -65 29 -192 -80 -176
	-71 12 -105 67 -59 124"/>
<use id="tclef" transform="translate(0,6) scale(0.045)"
	xlink:href="#utclef"/>
</defs>
<use x="30.90" y="75.00" xlink:href="#tclef"/>
<defs>
<path id="hl1" class="stroke" d="m-7 0h14"/>
</defs>
<use x="57.90" y="87.00" xlink:href="#hl1"/>
<defs>
<path id="HD" class="fill" d="m-2.7 -1.4
	c1.5 -2.8 6.9 0 5.3 2.7
	-1.5 2.8 -6.9 0 -5.3 -2.7
	m8.3 1.4
	c0 -1.5 -2.2 -3 -5.6 -3
	-3.4 0 -5.6 1.5 -5.6 3
	0 1.5 2.2 3 5.6 3
	3.4 0 5.6 -1.5 5.6 -3"/>
</defs>
<use x="57.90" y="87.00" xlink:href="#HD"/>
<use x="109.40" y="84.00" xlink:href="#HD"/>
<use x="160.80" y="81.00" xlink:href="#HD"/>
<use x="212.30" y="78.00" xlink:href="#HD"/>
<use x="263.80" y="75.00" xlink:href="#HD"/>
<use x="315.30" y="72.00" xlink:href="#HD"/>
<use x="366.70" y="69.00" xlink:href="#HD"/>
<use x="418.20" y="66.00" xlink:href="#HD"/>
<use x="469.70" y="63.00" xlink:href="#HD"/>
<use x="521.20" y="60.00" xlink:href="#HD"/>
<use x="572.60" y="57.00" xlink:href="#HD"/>
<use x="624.10" y="54.00" xlink:href="#HD"/>
<use x="675.60" y="51.00" xlink:href="#hl1"/>
<use x="675.60" y="51.00" xlink:href="#HD"/>
<use x="727.10" y="51.00" xlink:href="#hl1"/>
<use x="727.10" y="48.00" xlink:href="#HD"/>
</g>
</svg>
